# xmcd
#
# Track frame offsets: 
#        150
#        18900
#        41667
#        63004
#        82026
#        103481
#        119433
#        141795
#        158031
#        176204
#        200008
#        224874
#
# Disc length: 3230 seconds
#
# Revision: 0
# Processed by: cddbd v1.4PL0 Copyright (c) Steve Scherf et al.
# Submitted via: ExactAudioCopy v0.90a11
#
DISCID=b60c9c0c
DTITLE=Barbara Lynn - Hot Night Tonight
DYEAR=1900
DGENRE=
TTITLE0=You're The Man
TTITLE1=I Love To Make Love
TTITLE2=I Let a Good Man Go
TTITLE3=Never Found a Man
TTITLE4=Hot Night Tonight
TTITLE5=Don't Hit Me No More
TTITLE6=Hear From My Daddy
TTITLE7=When Something's Wrong
TTITLE8=It's Been So Long
TTITLE9=Lynn's Blues
TTITLE10=You're The Man
TTITLE11=What I Need Is Love
EXTD=
EXTT0=
EXTT1=
EXTT2=
EXTT3=
EXTT4=
EXTT5=
EXTT6=
EXTT7=
EXTT8=
EXTT9=
EXTT10=
EXTT11=
PLAYORDER=
